# This file uses meters as units for non-parametric coordinates.

mtllib NormalMushroom_S.mtl
g default
v -80.750200 56.039485 -99.682442
v -100.232469 65.844818 -114.376136
v -123.876679 77.024181 -111.622727
v -140.619436 84.346625 -92.710564
v -142.626620 84.385897 -66.488864
v -128.959048 77.123621 -45.227048
v -106.011940 65.957902 -38.873758
v -84.522487 56.113298 -50.401769
v -74.545850 52.196210 -74.416994
v -99.859414 88.215012 -76.408608
v -82.407237 70.886844 -93.545928
v -90.107982 81.442592 -84.990264
v -96.948670 78.205477 -104.513201
v -97.448380 85.136979 -90.526456
v -114.596555 86.549683 -102.458079
v -106.356880 89.349062 -89.489048
v -127.093222 92.015098 -88.342171
v -112.665106 92.107964 -82.363448
v -128.591384 92.044417 -68.770474
v -113.421373 92.122767 -72.483808
v -118.390001 86.623903 -52.900802
v -108.271781 89.386528 -64.472926
v -101.262431 78.289885 -48.158747
v -99.625925 85.179584 -62.079175
v -85.222849 70.941939 -56.763172
v -91.529274 81.470400 -66.422624
v -77.776361 68.018254 -74.687975
v -87.770351 79.994550 -75.470919
v -84.519439 46.974064 -101.825885
v -82.219830 48.165956 -102.081843
v -105.547112 53.072250 -117.627803
v -103.522589 56.941794 -118.139492
v -130.974647 65.094800 -114.666743
v -129.361615 69.158903 -115.130498
v -148.980197 72.969526 -94.328176
v -147.658543 77.161063 -94.462791
v -151.138769 73.011760 -66.128751
v -149.852048 77.203980 -65.807022
v -136.440344 65.201739 -43.263304
v -134.915762 69.267573 -42.571547
v -111.762501 53.193867 -36.430827
v -109.838546 57.065376 -35.628500
v -88.565685 46.680658 -48.828313
v -86.340864 48.055218 -48.226616
v -77.773457 46.604849 -74.654843
v -75.396536 47.604494 -74.471092
v -107.936798 55.280869 -81.935169
v -89.690247 46.843210 -98.244388
v -107.586371 52.261112 -111.687884
v -111.833748 57.242185 -84.874283
v -106.695768 54.512115 -76.881432
v -83.932601 46.205508 -75.128599
v -108.691349 55.295632 -72.077772
v -93.135094 46.630138 -53.156652
v -129.218864 62.489304 -109.168755
v -116.563200 59.478347 -84.323531
v -144.537116 69.188742 -91.865707
v -119.912172 60.943019 -80.540613
v -146.373524 69.224672 -67.875019
v -120.313660 60.950874 -75.295602
v -133.868810 62.580283 -48.422219
v -117.579804 59.498237 -71.042688
v -112.874108 52.364576 -42.609486
v -112.989787 57.264804 -69.771874
v -121.558816 1.931530 -83.969674
v -125.919370 2.067713 -86.908788
v -120.109391 1.757439 -78.915937
v -122.249299 1.626901 -74.112276
v -126.977252 1.600994 -71.806379
v -132.080998 1.691842 -73.077192
v -135.172416 1.856934 -77.330107
v -134.805018 2.019024 -82.575118
v -131.150712 2.102267 -86.358035
v -121.182484 49.792135 -84.662615
v -125.410435 41.746499 -85.001699
v -128.575122 32.918041 -85.340782
v -130.494507 23.239082 -85.679867
v -131.044134 12.833020 -86.018951
v -124.531456 51.256808 -80.879697
v -128.865021 42.629018 -81.218781
v -132.129298 33.460523 -81.557865
v -134.116382 23.429186 -81.896950
v -134.698440 12.749778 -82.236034
v -124.932945 51.264663 -75.634686
v -129.265457 42.599196 -75.973771
v -132.523326 33.383158 -76.312854
v -134.498380 23.305375 -76.651939
v -135.065838 12.587688 -76.991023
v -122.199088 49.812025 -71.381772
v -126.422754 41.651820 -71.720856
v -129.568942 32.703308 -72.059939
v -131.455644 22.907349 -72.399024
v -131.974419 12.422595 -72.738108
v -117.601427 47.955480 -70.110958
v -121.648806 40.444563 -70.450042
v -124.653359 31.954789 -70.789126
v -126.439892 22.635921 -71.128211
v -126.870674 12.331747 -71.467295
v -113.266423 46.728115 -72.416856
v -117.180722 39.635909 -72.755940
v -120.090204 31.580659 -73.095023
v -121.821734 22.709037 -73.434108
v -122.142721 12.357654 -73.773192
v -111.249771 46.313130 -77.220516
v -115.121312 39.422235 -77.559600
v -118.007279 31.573207 -77.898684
v -119.735177 22.910988 -78.237769
v -120.002813 12.488192 -78.576853
v -116.445281 47.958583 -85.213367
v -120.501263 40.585530 -85.552451
v -123.530798 32.231612 -85.891535
v -125.358337 23.044653 -86.230620
v -125.812793 12.798466 -86.569704
v -112.512109 46.749364 -82.274253
v -116.434316 39.746968 -82.613338
v -119.362357 31.779948 -82.952421
v -121.122837 22.993713 -83.291506
v -121.452238 12.662283 -83.630590
vt 1.000000 0.766673
vt 0.019301 0.891235
vt 0.130412 0.891235
vt 0.241523 0.891235
vt 0.352634 0.891235
vt 0.463745 0.891235
vt 0.574856 0.891235
vt 0.685967 0.891235
vt 0.797078 0.891235
vt 0.908189 0.891235
vt 0.000000 0.766673
vt 0.111111 0.766673
vt 0.222222 0.766673
vt 0.333333 0.766673
vt 0.444444 0.766673
vt 0.555556 0.766673
vt 0.666667 0.766673
vt 0.777778 0.766673
vt 1.000000 0.666667
vt 0.888889 0.766673
vt 0.091811 0.891235
vt 0.055556 1.000000
vt 0.202922 0.891235
vt 0.166667 1.000000
vt 0.314033 0.891235
vt 0.277778 1.000000
vt 0.425144 0.891235
vt 0.388889 1.000000
vt 0.536255 0.891235
vt 0.500000 1.000000
vt 0.647366 0.891235
vt 0.611111 1.000000
vt 0.758477 0.891235
vt 0.722222 1.000000
vt 0.869588 0.891235
vt 0.833333 1.000000
vt 0.980699 0.891235
vt 0.944444 1.000000
vt 0.111111 0.566660
vt 0.000000 0.666667
vt 0.222222 0.566660
vt 0.111111 0.666667
vt 0.333333 0.566660
vt 0.222222 0.666667
vt 0.444444 0.566660
vt 0.333333 0.666667
vt 0.555556 0.566660
vt 0.444444 0.666667
vt 0.666667 0.566660
vt 0.555556 0.666667
vt 0.777778 0.566660
vt 0.666667 0.666667
vt 0.888889 0.566660
vt 0.777778 0.666667
vt 1.000000 0.566660
vt 0.888889 0.666667
vt 0.000000 0.566660
vt 0.000000 0.500000
vt 0.781444 0.500000
vt 0.529426 0.500000
vt 0.309054 0.500000
vt 0.351687 0.500000
vt 0.437375 0.500000
vt 0.529548 0.500000
vt 0.999994 0.500000
vt 0.394745 0.500000
vt 0.869520 0.500000
vt 0.888885 0.500000
vt 0.831853 0.500000
vt 0.777775 0.500000
vt 0.111128 0.500000
vt 0.271390 0.500000
vt 0.222224 0.500000
vt 0.340722 0.500000
vt 0.333333 0.500000
vt 0.439061 0.500000
vt 0.444444 0.500000
vt 0.539829 0.500000
vt 0.555555 0.500000
vt 0.644721 0.500000
vt 0.666665 0.500000
vt 0.723020 0.500000
vt 0.789231 0.500000
vt 0.682082 0.500000
vt 0.628523 0.500000
vt 0.529426 0.500000
vt 0.781444 0.500000
vt 0.789231 0.500000
vt 0.682082 0.500000
vt 0.628523 0.500000
vt 0.529548 0.500000
vt 0.437375 0.500000
vt 0.351687 0.500000
vt 0.309054 0.500000
vt 0.309054 0.500000
vt 0.309054 0.500000
vt 0.309054 0.500000
vt 0.309054 0.500000
vt 0.309054 0.500000
vt 0.351687 0.500000
vt 0.351687 0.500000
vt 0.351687 0.500000
vt 0.351687 0.500000
vt 0.351687 0.500000
vt 0.437375 0.500000
vt 0.437375 0.500000
vt 0.437375 0.500000
vt 0.437375 0.500000
vt 0.437375 0.500000
vt 0.529548 0.500000
vt 0.529548 0.500000
vt 0.529548 0.500000
vt 0.529548 0.500000
vt 0.529548 0.500000
vt 0.628522 0.500000
vt 0.628523 0.500000
vt 0.628523 0.500000
vt 0.628523 0.500000
vt 0.628523 0.500000
vt 0.682082 0.500000
vt 0.682082 0.500000
vt 0.682082 0.500000
vt 0.682082 0.500000
vt 0.682082 0.500000
vt 0.789231 0.500000
vt 0.789231 0.500000
vt 0.789231 0.500000
vt 0.789231 0.500000
vt 0.789231 0.500000
vt 0.529426 0.500000
vt 0.529426 0.500000
vt 0.529426 0.500000
vt 0.529426 0.500000
vt 0.529426 0.500000
vt 0.781444 0.500000
vt 0.781444 0.500000
vt 0.781444 0.500000
vt 0.781444 0.500000
vt 0.781444 0.500000
vn 0.823497 0.413909 -0.387985
vn 0.673841 0.714242 -0.189201
vn 0.733848 0.677070 0.055160
vn 0.936246 0.344067 0.071151
vn 0.469455 0.592096 -0.655007
vn 0.485414 0.809076 -0.331314
vn 0.039780 0.795253 -0.604971
vn 0.256734 0.917200 -0.304684
vn -0.264478 0.928321 -0.261289
vn 0.094802 0.988020 -0.121771
vn -0.300954 0.929034 0.215225
vn 0.075389 0.988400 0.131838
vn -0.052580 0.797061 0.601606
vn 0.207579 0.918162 0.337477
vn 0.364427 0.594151 0.717061
vn 0.429517 0.810170 0.398924
vn 0.754945 0.415250 0.507568
vn 0.637357 0.714955 0.287428
vn 0.844248 0.167756 -0.509022
vn 0.404206 0.380547 -0.831746
vn -0.126400 0.625580 -0.769852
vn -0.507078 0.792070 -0.339849
vn -0.552715 0.792963 0.256351
vn -0.241958 0.627841 0.739778
vn 0.273674 0.382245 0.882605
vn 0.756624 0.168884 0.631663
vn 0.993992 0.078100 0.076680
vn 0.430236 0.902164 0.031582
vn 0.605422 -0.009828 -0.795844
vn 0.590968 -0.065507 -0.804031
vn -0.000520 0.238109 -0.971238
vn -0.000520 0.238109 -0.971238
vn -0.549941 0.489807 -0.676501
vn -0.549941 0.489807 -0.676501
vn -0.805013 0.589955 -0.062505
vn -0.805013 0.589955 -0.062505
vn -0.646387 0.491694 0.583456
vn -0.646387 0.491694 0.583456
vn -0.148284 0.241001 0.959130
vn -0.148284 0.241001 0.959130
vn 0.461145 -0.060576 0.885255
vn 0.475206 -0.011888 0.879794
vn 0.825311 -0.438957 0.355217
vn 0.863482 -0.341664 0.371031
vn 0.906129 -0.350727 -0.236478
vn 0.863636 -0.450159 -0.226914
vn 0.419802 -0.899745 -0.119268
vn 0.419802 -0.899745 -0.119268
vn 0.417115 -0.473968 -0.775480
vn 0.417115 -0.473968 -0.775480
vn -0.141799 -0.056495 -0.988282
vn -0.141799 -0.056495 -0.988282
vn -0.694995 0.196932 -0.691520
vn -0.694995 0.196932 -0.691520
vn -0.951819 0.297769 -0.073305
vn -0.951819 0.297769 -0.073305
vn -0.792103 0.198832 0.577095
vn -0.792103 0.198832 0.577095
vn -0.290577 -0.053583 0.955350
vn -0.290577 -0.053583 0.955350
vn 0.296135 -0.458452 0.837930
vn 0.296135 -0.458452 0.837930
vn 0.425150 -0.885714 0.186432
vn 0.425150 -0.885715 0.186432
vn -0.371608 -0.926005 0.066492
vn -0.245616 -0.969355 -0.004824
vn -0.204862 -0.978580 -0.020332
vn -0.360224 -0.932343 -0.031241
vn -0.397731 -0.912491 0.095758
vn -0.363018 -0.931101 -0.035623
vn -0.379171 -0.921736 0.081438
vn -0.433626 -0.900174 -0.040691
vn -0.250579 -0.967432 -0.035862
vn -0.362678 -0.923480 -0.125101
vn -0.369773 -0.928950 -0.017870
vn -0.383478 -0.910804 -0.152910
vn -0.325404 -0.945380 0.019224
vn -0.438213 -0.898160 -0.035752
vn -0.318902 -0.945507 -0.065712
vn -0.438754 -0.898149 -0.028686
vn -0.362569 -0.922061 -0.135454
vn -0.434972 -0.900147 -0.023101
vn -0.050818 -0.991859 -0.116760
vn -0.293783 -0.925934 -0.237354
vn 0.034996 -0.999383 -0.003013
vn -0.076787 -0.991701 0.103112
vn -0.505378 -0.831007 -0.232422
vn -0.603141 -0.788251 -0.121992
vn -0.614861 -0.788021 0.031119
vn -0.535055 -0.830427 0.155269
vn -0.333305 -0.923070 0.191962
vn -0.009927 -0.999452 -0.031582
vn -0.009927 -0.999452 -0.031582
vn -0.009927 -0.999452 -0.031582
vn -0.009927 -0.999452 -0.031582
vn -0.009927 -0.999452 -0.031582
vn -0.009927 -0.999452 -0.031582
vn -0.009927 -0.999452 -0.031582
vn -0.009927 -0.999452 -0.031582
vn -0.009927 -0.999452 -0.031582
vn 0.520084 -0.236958 -0.820588
vn 0.520084 -0.236958 -0.820588
vn 0.523586 -0.244072 -0.816264
vn 0.524603 -0.246149 -0.814986
vn 0.850946 -0.453600 -0.264835
vn 0.850946 -0.453600 -0.264835
vn 0.850285 -0.458142 -0.259078
vn 0.850202 -0.458687 -0.258384
vn 0.801541 -0.452247 0.391159
vn 0.801541 -0.452247 0.391159
vn 0.802516 -0.458577 0.381674
vn 0.802417 -0.457907 0.382685
vn 0.389320 -0.233865 0.890919
vn 0.389320 -0.233865 0.890919
vn 0.394897 -0.246421 0.885061
vn 0.393702 -0.243718 0.886341
vn -0.233108 0.078675 0.969263
vn -0.233108 0.078675 0.969263
vn -0.234317 0.080476 0.968824
vn -0.234170 0.080257 0.968877
vn -0.738106 0.331425 0.587671
vn -0.738106 0.331425 0.587671
vn -0.736652 0.340282 0.584425
vn -0.736671 0.340170 0.584466
vn -0.899484 0.431391 -0.069499
vn -0.899484 0.431391 -0.069499
vn -0.895479 0.439818 -0.068397
vn -0.895484 0.439806 -0.068399
vn -0.639986 0.329505 -0.694150
vn -0.639986 0.329505 -0.694150
vn -0.638958 0.341363 -0.689351
vn -0.638945 0.341504 -0.689293
vn -0.082987 0.075905 -0.993656
vn -0.082987 0.075905 -0.993656
vn -0.084020 0.081520 -0.993124
vn -0.084178 0.082375 -0.993040
vn -0.104587 0.034989 -0.993900
vn -0.104591 0.035054 -0.993897
vn -0.104434 0.032447 -0.994002
vn -0.104434 0.032447 -0.994002
vn -0.103790 0.045981 -0.993536
vn -0.103680 0.046918 -0.993504
vn -0.099767 0.063892 -0.992957
vn -0.099229 0.065373 -0.992915
vn -0.091583 0.080595 -0.992531
vn -0.090352 0.082415 -0.992494
vn -0.719217 0.044669 -0.693349
vn -0.719214 0.044972 -0.693331
vn -0.719243 0.029078 -0.694150
vn -0.719243 0.029078 -0.694150
vn -0.714596 0.110229 -0.690799
vn -0.714411 0.111941 -0.690715
vn -0.696178 0.213320 -0.685442
vn -0.695223 0.217055 -0.685238
vn -0.661280 0.309807 -0.683175
vn -0.659022 0.314324 -0.683294
vn -0.997001 0.033880 -0.069584
vn -0.996999 0.033921 -0.069584
vn -0.997509 0.012103 -0.069499
vn -0.997509 0.012103 -0.069499
vn -0.989838 0.124160 -0.069318
vn -0.989838 0.124160 -0.069318
vn -0.961985 0.264406 -0.068373
vn -0.961983 0.264414 -0.068373
vn -0.917071 0.392956 -0.067575
vn -0.917066 0.392968 -0.067575
vn -0.809708 0.006138 0.586801
vn -0.809699 0.005878 0.586816
vn -0.809031 -0.010535 0.587671
vn -0.809031 -0.010535 0.587671
vn -0.807192 0.078718 0.585016
vn -0.807309 0.077162 0.585062
vn -0.790360 0.194588 0.580918
vn -0.791165 0.190823 0.581072
vn -0.755934 0.303676 0.579952
vn -0.757967 0.298875 0.579794
vn -0.243106 -0.024394 0.969693
vn -0.243081 -0.024481 0.969697
vn -0.241996 -0.028244 0.969866
vn -0.241996 -0.028244 0.969866
vn -0.245477 -0.003738 0.969395
vn -0.245369 -0.005231 0.969416
vn -0.245447 0.031455 0.968900
vn -0.245627 0.028775 0.968937
vn -0.239644 0.066866 0.968556
vn -0.240566 0.063219 0.968572
vn 0.440325 -0.039010 0.896991
vn 0.440294 -0.038915 0.897010
vn 0.438269 -0.032737 0.898248
vn 0.438269 -0.032737 0.898248
vn 0.442803 -0.081979 0.892864
vn 0.442789 -0.077328 0.893285
vn 0.434547 -0.155924 0.887049
vn 0.436023 -0.149315 0.887462
vn 0.412829 -0.227212 0.882013
vn 0.416130 -0.218396 0.882689
vn 0.914327 -0.030341 0.403840
vn 0.914323 -0.030305 0.403850
vn 0.913464 -0.021912 0.406329
vn 0.913464 -0.021912 0.406329
vn 0.911391 -0.112712 0.395807
vn 0.911795 -0.107828 0.396236
vn 0.884619 -0.263653 0.384624
vn 0.886283 -0.257529 0.384944
vn 0.835075 -0.401035 0.376592
vn 0.838457 -0.393451 0.377075
vn 0.961897 -0.009661 -0.273241
vn 0.961900 -0.009697 -0.273231
vn 0.961239 -0.000835 -0.275715
vn 0.961239 -0.000835 -0.275715
vn 0.959196 -0.090554 -0.267848
vn 0.958787 -0.095473 -0.267604
vn 0.933282 -0.246915 -0.260801
vn 0.931616 -0.253359 -0.260579
vn 0.885132 -0.389012 -0.255363
vn 0.881694 -0.396959 -0.255029
vn 0.561817 0.013430 -0.827153
vn 0.561858 0.013315 -0.827127
vn 0.559240 0.020633 -0.828749
vn 0.559240 0.020633 -0.828749
vn 0.566528 -0.032210 -0.823413
vn 0.566766 -0.038171 -0.822994
vn 0.562849 -0.119828 -0.817828
vn 0.561563 -0.128472 -0.817400
vn 0.544806 -0.204937 -0.813134
vn 0.541420 -0.216349 -0.812439
s 1
g pasted__pSphere1 group6
usemtl initialShadingGroup
f 11/1/1 12/37/2 28/10/3 27/20/4
f 12/2/2 11/11/1 13/12/5 14/21/6
f 14/3/6 13/12/5 15/13/7 16/23/8
f 16/4/8 15/13/7 17/14/9 18/5/10
f 18/5/10 17/14/9 19/15/11 20/6/12
f 20/6/12 19/15/11 21/16/13 22/29/14
f 22/7/14 21/16/13 23/17/15 24/31/16
f 24/8/16 23/17/15 25/18/17 26/9/18
f 26/9/18 25/18/17 27/20/4 28/10/3
f 1/40/19 2/42/20 13/12/5 11/11/1
f 2/42/20 3/44/21 15/13/7 13/12/5
f 3/44/21 4/46/22 17/14/9 15/13/7
f 4/46/22 5/48/23 19/15/11 17/14/9
f 5/48/23 6/50/24 21/16/13 19/15/11
f 6/50/24 7/52/25 23/17/15 21/16/13
f 7/52/25 8/54/26 25/18/17 23/17/15
f 8/54/26 9/56/27 27/20/4 25/18/17
f 9/56/27 1/19/19 11/1/1 27/20/4
f 12/2/2 14/21/6 10/22/28
f 14/3/6 16/23/8 10/24/28
f 16/4/8 18/25/10 10/26/28
f 18/5/10 20/27/12 10/28/28
f 20/6/12 22/29/14 10/30/28
f 22/7/14 24/31/16 10/32/28
f 24/8/16 26/33/18 10/34/28
f 26/9/18 28/35/3 10/36/28
f 28/10/3 12/37/2 10/38/28
f 30/57/29 32/39/30 2/42/20 1/40/19
f 32/39/31 34/41/32 3/44/21 2/42/20
f 34/41/33 36/43/34 4/46/22 3/44/21
f 36/43/35 38/45/36 5/48/23 4/46/22
f 38/45/37 40/47/38 6/50/24 5/48/23
f 40/47/39 42/49/40 7/52/25 6/50/24
f 42/49/41 44/51/42 8/54/26 7/52/25
f 44/51/43 46/53/44 9/56/27 8/54/26
f 46/53/45 30/55/46 1/19/19 9/56/27
f 29/65/47 30/55/46 46/53/45 45/68/48
f 30/57/29 29/58/49 31/71/50 32/39/30
f 32/39/31 31/71/51 33/73/52 34/41/32
f 34/41/33 33/73/53 35/75/54 36/43/34
f 36/43/35 35/75/55 37/77/56 38/45/36
f 38/45/37 37/77/57 39/79/58 40/47/38
f 40/47/39 39/79/59 41/81/60 42/49/40
f 42/49/41 41/81/61 43/70/62 44/51/42
f 44/51/43 43/70/63 45/68/64 46/53/44
s 2
f 47/59/65 48/67/66 52/69/67 51/83/68
f 48/67/66 47/59/65 50/60/69 49/66/70
f 49/66/70 50/60/69 56/61/71 55/72/72
f 51/83/68 52/69/67 54/82/73 53/84/74
f 53/84/74 54/82/73 63/80/75 64/85/76
f 55/72/72 56/61/71 58/62/77 57/74/78
f 57/74/78 58/62/77 60/63/79 59/76/80
f 59/76/80 60/63/79 62/64/81 61/78/82
f 61/78/82 62/64/81 64/85/76 63/80/75
f 29/65/83 48/67/66 49/66/70 31/71/84
f 48/67/66 29/65/83 45/68/85 52/69/67
f 52/69/67 45/68/85 43/70/86 54/82/73
f 31/71/84 49/66/70 55/72/72 33/73/87
f 33/73/87 55/72/72 57/74/78 35/75/88
f 35/75/88 57/74/78 59/76/80 37/77/89
f 37/77/89 59/76/80 61/78/82 39/79/90
f 39/79/90 61/78/82 63/80/75 41/81/91
f 41/81/91 63/80/75 54/82/73 43/70/86
s off
f 66/86/92 65/87/93 67/88/94 68/89/95 69/90/96 70/91/97 71/92/98 72/93/99 73/94/100
s 3
f 50/60/101 47/59/102 114/135/103 109/130/104
s 4
f 47/59/105 51/83/106 104/125/107 114/135/108
s 5
f 51/83/109 53/84/110 99/120/111 104/125/112
s 6
f 53/84/113 64/85/114 94/115/115 99/120/116
s 7
f 64/85/117 62/64/118 89/110/119 94/115/120
s 8
f 62/64/121 60/63/122 84/105/123 89/110/124
s 9
f 60/63/125 58/62/126 79/100/127 84/105/128
s 10
f 58/62/129 56/61/130 74/95/131 79/100/132
s 11
f 56/61/133 50/60/134 109/130/135 74/95/136
f 78/99/137 113/134/138 66/86/139 73/94/140
f 77/98/141 112/133/142 113/134/138 78/99/137
f 76/97/143 111/132/144 112/133/142 77/98/141
f 75/96/145 110/131/146 111/132/144 76/97/143
f 74/95/136 109/130/135 110/131/146 75/96/145
s 10
f 83/104/147 78/99/148 73/94/149 72/93/150
f 82/103/151 77/98/152 78/99/148 83/104/147
f 81/102/153 76/97/154 77/98/152 82/103/151
f 80/101/155 75/96/156 76/97/154 81/102/153
f 79/100/132 74/95/131 75/96/156 80/101/155
s 9
f 88/109/157 83/104/158 72/93/159 71/92/160
f 87/108/161 82/103/162 83/104/158 88/109/157
f 86/107/163 81/102/164 82/103/162 87/108/161
f 85/106/165 80/101/166 81/102/164 86/107/163
f 84/105/128 79/100/127 80/101/166 85/106/165
s 8
f 93/114/167 88/109/168 71/92/169 70/91/170
f 92/113/171 87/108/172 88/109/168 93/114/167
f 91/112/173 86/107/174 87/108/172 92/113/171
f 90/111/175 85/106/176 86/107/174 91/112/173
f 89/110/124 84/105/123 85/106/176 90/111/175
s 7
f 98/119/177 93/114/178 70/91/179 69/90/180
f 97/118/181 92/113/182 93/114/178 98/119/177
f 96/117/183 91/112/184 92/113/182 97/118/181
f 95/116/185 90/111/186 91/112/184 96/117/183
f 94/115/120 89/110/119 90/111/186 95/116/185
s 6
f 103/124/187 98/119/188 69/90/189 68/89/190
f 102/123/191 97/118/192 98/119/188 103/124/187
f 101/122/193 96/117/194 97/118/192 102/123/191
f 100/121/195 95/116/196 96/117/194 101/122/193
f 99/120/116 94/115/115 95/116/196 100/121/195
s 5
f 108/129/197 103/124/198 68/89/199 67/88/200
f 107/128/201 102/123/202 103/124/198 108/129/197
f 106/127/203 101/122/204 102/123/202 107/128/201
f 105/126/205 100/121/206 101/122/204 106/127/203
f 104/125/112 99/120/111 100/121/206 105/126/205
s 4
f 118/139/207 108/129/208 67/88/209 65/87/210
f 117/138/211 107/128/212 108/129/208 118/139/207
f 116/137/213 106/127/214 107/128/212 117/138/211
f 115/136/215 105/126/216 106/127/214 116/137/213
f 114/135/108 104/125/107 105/126/216 115/136/215
s 3
f 113/134/217 118/139/218 65/87/219 66/86/220
f 112/133/221 117/138/222 118/139/218 113/134/217
f 111/132/223 116/137/224 117/138/222 112/133/221
f 110/131/225 115/136/226 116/137/224 111/132/223
f 109/130/104 114/135/103 115/136/226 110/131/225
